<svg width="295" height="78" viewBox="0 0 295 78" fill="none" xmlns="http://www.w3.org/2000/svg">
<path fill-rule="evenodd" clip-rule="evenodd" d="M0 39.0002C0 17.4611 17.4314 0 38.9342 0C60.4371 0 77.8684 17.4611 77.8684 39.0002C77.8684 60.5394 60.4371 78 38.9342 78C17.4314 78 0 60.5394 0 39.0002ZM53.631 47.0414C54.2398 47.6512 55.2272 47.6512 55.8364 47.0414L66.8176 36.0417C67.4263 35.4314 67.4263 34.4426 66.8176 33.8324L55.8364 22.8327C55.2272 22.2229 54.2398 22.2229 53.631 22.8327L42.6496 33.8324C42.0407 34.4426 42.0407 35.4314 42.6496 36.0417L53.631 47.0414ZM40.0147 62.8899L50.9958 51.8897C51.605 51.28 51.605 50.2909 50.9958 49.6808L40.0147 38.6811C39.4057 38.0709 38.4183 38.0709 37.8093 38.6811L26.8279 49.6808C26.2189 50.2909 26.2189 51.28 26.8279 51.8897L37.8093 62.8899C38.4183 63.4997 39.4057 63.4997 40.0147 62.8899ZM11.0064 36.0417L21.9875 47.0414C22.5965 47.6512 23.5839 47.6512 24.1929 47.0414L35.1743 36.0417C35.7833 35.4314 35.7833 34.4426 35.1743 33.8324L24.1929 22.8327C23.5839 22.2229 22.5965 22.2229 21.9875 22.8327L11.0064 33.8324C10.3974 34.4426 10.3974 35.4314 11.0064 36.0417Z" fill="white"/>
<path d="M90.8371 23.3118L102.521 62.5133C102.745 63.0732 103.025 63.353 103.807 63.353H112.529C113.088 63.353 113.479 63.0732 113.647 62.5133L125.164 23.3118C125.331 22.8082 125.108 22.36 124.493 22.36H117.84C117.281 22.36 116.777 22.6396 116.61 23.2002L111.299 42.1284C110.181 46.1044 108.839 51.089 108.224 54.5044H108C107.497 51.1447 106.156 46.1044 105.093 42.2404L99.7264 23.2002C99.503 22.6396 99.2789 22.36 98.6081 22.36H91.396C90.9485 22.36 90.6131 22.8082 90.8371 23.3118Z" fill="white"/>
<path fill-rule="evenodd" clip-rule="evenodd" d="M150.209 42.2961V62.5134C150.209 63.0165 149.874 63.3532 149.371 63.3532H143.22C142.662 63.3532 142.326 63.0165 142.326 62.5134V59.209C140.481 62.1767 137.518 63.9689 133.828 63.9689C128.014 63.9689 124.268 60.2167 124.268 54.4489C124.268 48.8488 127.79 45.4883 136.4 44.8727C138.245 44.7049 140.145 44.7049 141.991 44.8163V42.5762C141.991 39.5526 140.425 38.3764 137.741 38.3764C135.003 38.3764 134.22 39.4963 133.493 41.2324C133.213 41.9043 132.989 42.0163 132.374 41.8487L126.225 40.2802C125.61 40.1125 125.554 39.7764 125.666 39.3285C126.504 34.9045 130.697 31.6562 138.077 31.6562C145.848 31.6562 150.209 35.3524 150.209 42.2961ZM141.991 52.8809V49.9686C140.257 49.9129 138.636 49.9686 137.071 50.1362C133.94 50.5285 132.263 51.481 132.263 53.889C132.263 56.0725 133.716 57.2488 136.121 57.2488C138.86 57.2488 140.984 55.7371 141.991 52.8809Z" fill="white"/>
<path d="M164.519 62.5133V44.2563C165.358 41.3443 167.426 39.3839 170.054 39.3839C172.626 39.3839 174.023 41.1205 174.023 43.9209V62.5133C174.023 63.0164 174.303 63.353 174.862 63.353H181.627C182.13 63.353 182.465 63.0732 182.465 62.5133V42.5205C182.465 36.0242 179.222 31.6561 173.408 31.6561C169.159 31.6561 166.084 34.008 164.24 36.6405V33.1119C164.24 32.7201 163.96 32.328 163.401 32.328H156.86C156.301 32.328 156.021 32.7201 156.021 33.1119V62.5133C156.021 63.0164 156.357 63.353 156.916 63.353H163.681C164.184 63.353 164.519 63.0164 164.519 62.5133Z" fill="white"/>
<path d="M198.398 25.7761V32.6081H204.156C204.715 32.6081 205.051 32.8887 205.051 33.5042V38.5444C205.051 39.1607 204.715 39.4405 204.156 39.4405H198.398V53.1606C198.398 54.9531 199.349 55.9607 201.64 55.9607H204.156C204.715 55.9607 205.051 56.2405 205.051 56.8009V62.5133C205.051 63.0732 204.715 63.353 204.156 63.353H200.299C193.366 63.353 190.123 59.6566 190.123 54.2809V39.4405H186.546C185.987 39.4405 185.651 39.1607 185.651 38.5444V33.5042C185.651 32.8887 185.987 32.6081 186.546 32.6081H190.235V25.7761C190.235 25.2718 190.515 24.9361 191.074 24.9361H197.615C198.118 24.9361 198.398 25.2718 198.398 25.7761Z" fill="white"/>
<path fill-rule="evenodd" clip-rule="evenodd" d="M233.785 62.5134V42.2961C233.785 35.3524 229.424 31.6562 221.653 31.6562C214.273 31.6562 210.081 34.9045 209.242 39.3285C209.13 39.7764 209.186 40.1125 209.801 40.2802L215.951 41.8487C216.566 42.0163 216.789 41.9043 217.069 41.2324C217.796 39.4963 218.578 38.3764 221.318 38.3764C224.001 38.3764 225.567 39.5526 225.567 42.5762V44.8163C223.722 44.7049 221.821 44.7049 219.976 44.8727C211.366 45.4883 207.844 48.8488 207.844 54.4489C207.844 60.2167 211.59 63.9689 217.404 63.9689C221.094 63.9689 224.057 62.1767 225.902 59.209V62.5134C225.902 63.0165 226.237 63.3532 226.797 63.3532H232.947C233.449 63.3532 233.785 63.0165 233.785 62.5134ZM225.567 49.9686V52.8809C224.56 55.7371 222.436 57.2488 219.697 57.2488C217.292 57.2488 215.838 56.0725 215.838 53.889C215.838 51.481 217.516 50.5285 220.647 50.1362C222.213 49.9686 223.833 49.9129 225.567 49.9686Z" fill="white"/>
<path fill-rule="evenodd" clip-rule="evenodd" d="M266.153 65.1426C266.153 70.5193 262.072 75.1118 251.059 75.1118C241.218 75.1118 237.529 71.8071 237.529 66.8794C237.529 64.3592 239.094 61.8948 242.393 60.6064C240.884 59.3189 240.213 57.6945 240.213 56.3505C240.213 54.3911 241.218 52.7107 243.288 51.7026C240.045 49.8545 238.424 46.7743 238.424 43.1345C238.424 37.0305 242.225 32.326 250.891 32.326H265.091C265.482 32.326 265.762 32.7181 265.762 33.1099V38.0381C265.762 38.5424 265.315 38.8223 264.867 38.8223H260.507C261.904 40.1661 262.799 42.1264 262.799 44.3663C262.799 49.3509 259.109 53.5507 251.115 53.6068H249.493C247.872 53.6068 247.257 54.2226 247.257 55.1187C247.257 55.9587 247.928 56.5747 249.493 56.5747L255.643 56.6303C262.966 56.6867 266.153 60.1589 266.153 65.1426ZM245.97 43.1345C245.97 45.9346 247.592 47.8385 250.891 47.8385C254.021 47.8385 255.643 46.0468 255.643 43.1345C255.643 40.3903 254.021 38.5424 250.835 38.5424C247.592 38.5424 245.97 40.2781 245.97 43.1345ZM258.103 65.9831C258.103 64.5272 257.208 63.1266 254.413 63.1266H248.767C246.195 63.1266 245.189 64.5829 245.189 66.0392C245.189 68.1112 246.921 69.5667 251.561 69.5667C256.145 69.5667 258.103 67.999 258.103 65.9831Z" fill="white"/>
<path fill-rule="evenodd" clip-rule="evenodd" d="M276.495 51.5914V50.4157H293.546C294.72 50.4157 295 49.8555 295 49.0158V44.0876C295 37.1992 290.751 31.6551 282.03 31.6551C272.861 31.6551 268.444 37.1992 268.444 44.2554V51.4236C268.444 58.7037 273.14 64.024 282.086 64.024C288.011 64.024 292.764 61.5604 294.665 57.2477C295.056 56.4079 295 55.9597 294.105 55.5115L289.688 53.2716C288.794 52.8798 288.571 52.9918 288.067 53.8315C287.061 55.6797 285.999 57.1357 282.142 57.1357C278.172 57.1357 276.495 54.8399 276.495 51.5914ZM276.495 44.9273V43.8633C276.495 40.839 278.228 38.4874 281.918 38.4874C285.608 38.4874 287.284 40.839 287.284 43.8633V44.9273H276.495Z" fill="white"/>
</svg>
