<svg width="70" height="70" viewBox="0 0 70 70" fill="none" xmlns="http://www.w3.org/2000/svg">
<rect width="70" height="70" rx="8.71429" fill="#222B86"/>
<path d="M36.5866 52.5644C36.4754 52.8241 36.2899 52.9539 36.0302 52.9539H33.8045C33.5448 52.9539 33.3593 52.8241 33.248 52.5644L23.0095 18.6773C23.0095 18.6031 22.991 18.566 22.9539 18.566C22.9539 18.5289 22.9539 18.4918 22.9539 18.4547C22.9539 18.1208 23.1579 17.9539 23.566 17.9539H26.2369C26.5707 17.9539 26.7562 18.0837 26.7933 18.3434L34.9173 46.6661H35.1955L43.0413 18.3434C43.0784 18.0837 43.2639 17.9539 43.5978 17.9539H46.2687C46.6767 17.9539 46.8808 18.1208 46.8808 18.4547C46.8808 18.4918 46.8622 18.5289 46.8251 18.566C46.8251 18.566 46.8251 18.6031 46.8251 18.6773L36.5866 52.5644Z" fill="white"/>
<path fill-rule="evenodd" clip-rule="evenodd" d="M37.4998 52.8403C37.4895 52.8742 37.4774 52.9076 37.4634 52.9401C37.355 53.193 37.1815 53.4487 36.9111 53.638C36.6353 53.8311 36.326 53.9078 36.0302 53.9078H33.8045C33.5086 53.9078 33.1994 53.8311 32.9236 53.638C32.6531 53.4487 32.4796 53.193 32.3712 52.9401C32.3573 52.9076 32.3451 52.8742 32.3349 52.8403L22.1189 19.0275C22.0431 18.8907 22 18.7334 22 18.566V18.4551C22 18.085 22.1224 17.6521 22.5029 17.3408C22.8467 17.0595 23.2562 17 23.566 17H26.2369C26.5113 17 26.8607 17.0509 27.1734 17.2698C27.4905 17.4918 27.6607 17.8089 27.724 18.1282L35.0429 43.6441L42.1096 18.1336C42.172 17.8125 42.3424 17.493 42.6612 17.2698C42.9739 17.0509 43.3233 17 43.5978 17H46.2687C46.5785 17 46.9879 17.0595 47.3318 17.3408C47.7123 17.6521 47.8347 18.0845 47.8347 18.4547C47.8347 18.5961 47.8077 18.7217 47.7666 18.8309C47.7598 18.8722 47.7504 18.913 47.7382 18.9532L37.4998 52.8403ZM46.8251 18.566C46.8622 18.5289 46.8808 18.4918 46.8808 18.4547C46.8808 18.1208 46.6767 17.9539 46.2687 17.9539H43.5978C43.2639 17.9539 43.0784 18.0837 43.0413 18.3434L35.1955 46.6661H34.9173L26.7933 18.3434C26.7562 18.0837 26.5707 17.9539 26.2369 17.9539H23.566C23.1579 17.9539 22.9539 18.1208 22.9539 18.4547V18.566C22.991 18.566 23.0095 18.6031 23.0095 18.6773L33.248 52.5644C33.3593 52.8241 33.5448 52.9539 33.8045 52.9539H36.0302C36.2899 52.9539 36.4754 52.8241 36.5866 52.5644L46.8251 18.6773V18.566ZM22.0558 18.6939C22.0557 18.6884 22.0556 18.6828 22.0556 18.6773C22.0556 18.6776 22.0556 18.678 22.0556 18.6786C22.0556 18.6812 22.0556 18.6864 22.0558 18.6939Z" fill="white"/>
</svg>
